<mxfile host="app.diagrams.net" modified="2021-09-14T03:07:01.445Z" agent="5.0 (Macintosh; Intel Mac OS X 10_15_7) AppleWebKit/537.36 (KHTML, like Gecko) Chrome/93.0.4577.63 Safari/537.36" etag="Cd7aE05I9anTDl0vWzy4" version="15.2.5" type="github">
  <diagram id="B6l5LZzmP__5z_FncqGB" name="Page-1">
    <mxGraphModel dx="1298" dy="751" grid="1" gridSize="10" guides="1" tooltips="1" connect="1" arrows="1" fold="1" page="1" pageScale="1" pageWidth="1169" pageHeight="827" math="0" shadow="0">
      <root>
        <mxCell id="0" />
        <mxCell id="1" parent="0" />
      </root>
    </mxGraphModel>
  </diagram>
</mxfile>
